HIERARCHY
ROOT Hips
{
	OFFSET -0.001795 -0.223333 0.028219
	CHANNELS 6 Xposition Yposition Zposition Zrotation Yrotation Xrotation 
	JOINT LeftUpLeg
	{
		OFFSET 0.069520 -0.091406 -0.006815
		CHANNELS 3 Zrotation Yrotation Xrotation
		JOINT LeftLeg
		{
			OFFSET 0.034277 -0.375199 -0.004496
			CHANNELS 3 Zrotation Yrotation Xrotation
			JOINT LeftFoot
			{
				OFFSET -0.013596 -0.397961 -0.043693
				CHANNELS 3 Zrotation Yrotation Xrotation
				JOINT LeftToe
				{
					OFFSET 0.026358 -0.055791 0.119288
					CHANNELS 3 Zrotation Yrotation Xrotation
					End Site
					{
						OFFSET 0.000000 0.000000 0.000000
					}
				}
			}
		}
	}
	JOINT RightUpLeg
	{
		OFFSET -0.067670 -0.090522 -0.004320
		CHANNELS 3 Zrotation Yrotation Xrotation
		JOINT RightLeg
		{
			OFFSET -0.038290 -0.382569 -0.008850
			CHANNELS 3 Zrotation Yrotation Xrotation
			JOINT RightFoot
			{
				OFFSET 0.015774 -0.398415 -0.042312
				CHANNELS 3 Zrotation Yrotation Xrotation
				JOINT RightToe
				{
					OFFSET -0.025372 -0.048144 0.123348
					CHANNELS 3 Zrotation Yrotation Xrotation
					End Site
					{
						OFFSET 0.000000 0.000000 0.000000
					}
				}
			}
		}
	}
	JOINT Spine
	{
		OFFSET -0.002533 0.108963 -0.026696
		CHANNELS 3 Zrotation Yrotation Xrotation
		JOINT Spine1
		{
			OFFSET 0.005487 0.135180 0.001092
			CHANNELS 3 Zrotation Yrotation Xrotation
			JOINT Spine2
			{
				OFFSET 0.001457 0.052922 0.025425
				CHANNELS 3 Zrotation Yrotation Xrotation
				JOINT Neck
				{
					OFFSET -0.002778 0.213870 -0.042857
					CHANNELS 3 Zrotation Yrotation Xrotation
					JOINT Head
					{
						OFFSET 0.005152 0.064970 0.051349
						CHANNELS 3 Zrotation Yrotation Xrotation
						End Site
						{
							OFFSET 0.000000 0.000000 0.000000
						}
					}
				}
				JOINT LeftShoulder
				{
					OFFSET 0.078845 0.121749 -0.034090
					CHANNELS 3 Zrotation Yrotation Xrotation
					JOINT LeftArm
					{
						OFFSET 0.090977 0.030469 -0.008868
						CHANNELS 3 Zrotation Yrotation Xrotation
						JOINT LeftForeArm
						{
							OFFSET 0.259612 -0.012772 -0.027456
							CHANNELS 3 Zrotation Yrotation Xrotation
							JOINT LeftHand
							{
								OFFSET 0.249234 0.008986 -0.001171
								CHANNELS 3 Zrotation Yrotation Xrotation
								End Site
								{
									OFFSET 0.000000 0.000000 0.000000
								}
							}
						}
					}
				}
				JOINT RightShoulder
				{
					OFFSET -0.081759 0.118833 -0.038615
					CHANNELS 3 Zrotation Yrotation Xrotation
					JOINT RightArm
					{
						OFFSET -0.096012 0.032551 -0.009143
						CHANNELS 3 Zrotation Yrotation Xrotation
						JOINT RightForeArm
						{
							OFFSET -0.253742 -0.013329 -0.021401
							CHANNELS 3 Zrotation Yrotation Xrotation
							JOINT RightHand
							{
								OFFSET -0.255298 0.007772 -0.005559
								CHANNELS 3 Zrotation Yrotation Xrotation
								End Site
								{
									OFFSET 0.000000 0.000000 0.000000
								}
							}
						}
					}
				}
			}
		}
	}
}
MOTION
Frames: 5
Frame Time: 0.050000
0.037355 0.894178 -0.019079 -0.280786 -11.876943 5.226105 2.656064 -1.045745 -32.124449 -2.353931 2.127063 42.991742 5.501909 11.653020 2.583750 0.000000 0.000000 0.000000 -4.243562 2.156483 -22.841523 11.227837 -1.424905 35.313394 -12.825044 -30.170837 -0.504500 0.000000 0.000000 0.000000 2.946916 -1.063082 24.853909 -6.337604 1.876683 -22.579134 -2.422793 8.112714 28.839004 14.722135 -7.343332 -24.311960 0.000000 0.000000 0.000000 -4.544711 -12.503824 4.732705 -8.299943 -14.979262 -1.368783 145.626996 -55.402055 -114.506861 0.000000 0.000000 0.000000 17.968218 -1.771721 -1.613852 13.148800 18.272474 -1.248923 -152.283778 59.901831 -127.986755 0.000000 0.000000 0.000000 
0.036295 0.895333 -0.018799 -0.703426 -12.336272 5.415701 3.556074 -0.728861 -32.237126 -2.852774 2.462657 42.641430 5.615067 11.967462 3.938944 0.000000 0.000000 0.000000 -3.905073 2.278134 -23.283153 11.478901 -1.453690 35.018720 -13.258003 -30.808314 1.453509 0.000000 0.000000 0.000000 3.439157 -1.175675 26.223155 -6.691792 1.925764 -23.964204 -1.764451 8.141320 28.726643 14.821314 -7.096291 -25.733620 0.000000 0.000000 0.000000 -8.307416 -12.499273 5.037143 -11.696308 -15.387398 -1.477022 144.801517 -54.495032 -111.648480 0.000000 0.000000 0.000000 20.749040 -0.811212 -1.325728 16.500351 20.588009 -1.041460 -151.429463 60.178290 -126.268913 0.000000 0.000000 0.000000 
0.035170 0.894796 -0.018417 -0.668630 -12.135793 5.701125 3.881658 -0.642987 -32.886848 -3.116001 2.599935 43.122637 5.252906 11.337072 4.327977 0.000000 0.000000 0.000000 -4.321899 2.254162 -23.645425 12.302457 -1.809541 34.970885 -13.510433 -31.328886 1.724189 0.000000 0.000000 0.000000 3.938688 -1.324819 26.698405 -6.913334 1.996416 -23.338060 -1.691495 8.080466 27.709285 14.261022 -6.159405 -28.094031 0.000000 0.000000 0.000000 -14.263539 -13.404855 5.830931 -17.013206 -15.952593 -1.529182 145.420445 -54.874108 -112.219244 0.000000 0.000000 0.000000 24.941556 0.328813 -0.941691 22.766052 21.075940 -0.700533 -154.538013 61.490234 -130.968364 0.000000 0.000000 0.000000 
0.034022 0.892792 -0.017381 -0.653950 -11.723754 5.470608 4.150573 -0.610719 -32.799715 -3.691499 2.869683 43.497309 5.496355 11.752446 3.740292 0.000000 0.000000 0.000000 -4.463449 2.242461 -23.908043 12.653915 -2.019032 36.133799 -13.549976 -31.438358 1.762535 0.000000 0.000000 0.000000 4.190783 -1.436070 27.724233 -7.197958 2.064417 -23.598925 -1.369753 7.905177 27.526568 14.724377 -5.825266 -30.827344 0.000000 0.000000 0.000000 -18.836648 -14.215648 6.531760 -22.454562 -15.320039 -1.699475 147.615097 -56.770132 -116.862781 0.000000 0.000000 0.000000 28.666049 1.949628 -0.079450 28.133367 20.371230 -0.585707 -160.562457 65.586185 -142.274273 0.000000 0.000000 0.000000 
0.033152 0.889405 -0.015883 -0.642478 -11.630195 4.982047 4.279175 -0.578790 -32.940786 -3.606139 2.918782 44.756678 5.235519 11.258387 3.663025 0.000000 0.000000 0.000000 -4.479185 2.206233 -23.684318 13.037812 -2.191743 37.213841 -13.629728 -31.774033 0.663830 0.000000 0.000000 0.000000 4.659744 -1.573511 28.343747 -7.678282 2.205502 -23.138179 -1.167694 7.906435 27.674599 14.473096 -5.365834 -32.374968 0.000000 0.000000 0.000000 -22.082752 -14.207010 6.722435 -26.610246 -13.837955 -2.052603 149.703439 -59.611855 -122.391349 0.000000 0.000000 0.000000 31.342654 2.889497 0.464307 31.672657 18.337122 -0.892238 -168.732681 70.781799 -156.422509 0.000000 0.000000 0.000000 
